<svg width="180" height="50" viewBox="0 0 180 50" fill="none" xmlns="http://www.w3.org/2000/svg">
  <!-- Medical Cross Icon -->
  <rect x="5" y="17" width="8" height="16" rx="1" fill="#3B82F6"/>
  <rect x="1" y="21" width="16" height="8" rx="1" fill="#3B82F6"/>
  
  <!-- Stethoscope -->
  <path d="M22 28C22 26 23 24 25 24C27 24 28 26 28 28C28 30 27 32 25 32C23 32 22 30 22 28Z" fill="#60A5FA"/>
  <path d="M25 24V15C25 12 23 10 20 10C17 10 15 12 15 15V22" stroke="#60A5FA" stroke-width="2" stroke-linecap="round"/>
  <circle cx="34" cy="16" r="2" fill="#3B82F6"/>
  <path d="M28 28C28 30 29 32 32 33" stroke="#60A5FA" stroke-width="1.5" stroke-linecap="round"/>
  
  <!-- Text -->
  <text x="44" y="28" font-family="Arial, sans-serif" font-size="18" font-weight="bold" fill="#1F2937">Medical</text>
  <text x="44" y="40" font-family="Arial, sans-serif" font-size="12" fill="#6B7280">Practice Management</text>
</svg>
